# xmcd
#
# Track frame offsets: 
#        150
#        17855
#        32959
#        52652
#        78184
#        97209
#        114787
#        132093
#        152156
#        164076
#        185448
#        200105
#        216939
#        234141
#        249169
#        274031
#        298141
#
# Disc length: 4165 seconds
#
# Revision: 0
# Processed by: cddbd v1.4PL0 Copyright (c) Steve Scherf et al.
# Submitted via: ExactAudioCopy v0.90b4
#
DISCID=eb104311
DTITLE=Jay - Fantasy
DYEAR=1900
DGENRE=Acoustic Blues
TTITLE0=Snail
TTITLE1=You ae happier than before
TTITLE2=End of the World
TTITLE3=Won't look back
TTITLE4=Predict
TTITLE5=Historical Love
TTITLE6=Dad I am back
TTITLE7=Easy Love
TTITLE8=Patience
TTITLE9=Can not say
TTITLE10=Shanghai 1943
TTITLE11=Sorry
TTITLE12=William Palace
TTITLE13=Double Sticks
TTITLE14=Silence
TTITLE15=Roof
TTITLE16=Face
EXTD=
EXTT0=
EXTT1=
EXTT2=
EXTT3=
EXTT4=
EXTT5=
EXTT6=
EXTT7=
EXTT8=
EXTT9=
EXTT10=
EXTT11=
EXTT12=
EXTT13=
EXTT14=
EXTT15=
EXTT16=
PLAYORDER=
